<svg width="19" height="20" viewBox="0 0 19 20" fill="none" xmlns="http://www.w3.org/2000/svg">
<path d="M11 0.75C11 0.33579 11.3358 0 11.75 0H18.25C18.6642 0 19 0.33579 19 0.75V7.25C19 7.66421 18.6642 8 18.25 8C17.8358 8 17.5 7.66421 17.5 7.25V2.56066L13.5303 6.53033C13.2374 6.82322 12.7626 6.82322 12.4697 6.53033C12.1768 6.23744 12.1768 5.76256 12.4697 5.46967L16.4393 1.5H11.75C11.3358 1.5 11 1.16421 11 0.75ZM11 8.75C11.4142 8.75 11.75 8.4142 11.75 8C11.75 7.58579 11.4142 7.25 11 7.25C10.5858 7.25 10.25 7.58579 10.25 8C10.25 8.4142 10.5858 8.75 11 8.75ZM9.75 10C9.75 10.4142 9.4142 10.75 9 10.75C8.5858 10.75 8.25 10.4142 8.25 10C8.25 9.5858 8.5858 9.25 9 9.25C9.4142 9.25 9.75 9.5858 9.75 10ZM7.2242 3.33967L6.36444 1.31232C5.93242 0.29358 4.85457 -0.22737 3.84575 0.09498L2.76916 0.43899C1.70165 0.78009 0.88414 1.69457 0.62014 2.84289C-0.00722998 5.57189 0.74552 8.8945 2.87839 12.8107C5.00816 16.7211 7.3425 19.0723 9.8813 19.8643C10.9567 20.1997 12.1193 19.9033 12.9332 19.0862L13.7509 18.2653C14.5139 17.4993 14.6245 16.2529 14.0096 15.3495L12.7773 13.539C12.2483 12.7618 11.3091 12.4313 10.4467 12.7189L8.1715 13.4776C7.2636 12.7905 6.50655 11.9257 5.90041 10.8832C5.29427 9.8406 4.93276 8.7816 4.81588 7.70616L6.7102 5.90815C7.3909 5.26203 7.5988 4.22312 7.2242 3.33967Z" fill="white"/>
</svg>
