<svg width="15" height="17" viewBox="0 0 15 17" fill="none" xmlns="http://www.w3.org/2000/svg">
<path d="M1.22637 14.3574H13.8264C14.213 14.3574 14.5264 14.869 14.5264 15.5002C14.5264 16.0863 14.2562 16.5694 13.908 16.6354L13.8264 16.6431H1.22637C0.839771 16.6431 0.526367 16.1314 0.526367 15.5002C0.526367 14.9142 0.796595 14.4311 1.14473 14.365L1.22637 14.3574ZM1.22628 7.50021L13.8263 7.49769C14.2129 7.49769 14.5264 8.00924 14.5264 8.64044C14.5264 9.22649 14.2562 9.7097 13.9081 9.77575L13.8264 9.78341L1.22645 9.78592C0.839855 9.78604 0.526367 9.27438 0.526367 8.64318C0.526367 8.05712 0.796525 7.57404 1.14465 7.50787L1.22628 7.50021ZM1.22637 0.643066H13.8264C14.213 0.643066 14.5264 1.15475 14.5264 1.78592C14.5264 2.37203 14.2562 2.85508 13.908 2.92109L13.8264 2.92878H1.22637C0.839771 2.92878 0.526367 2.4171 0.526367 1.78592C0.526367 1.19982 0.796595 0.716769 1.14473 0.650758L1.22637 0.643066Z" fill="black"/>
</svg>
